<svg width="220" height="220" viewBox="0 0 220 220" fill="none" xmlns="http://www.w3.org/2000/svg">
<path d="M104.948 194.015L109.853 194.634L99.6469 215.336L93.7492 214.591L89.0205 192.001L93.9247 192.621L97.2381 210.006L97.4072 210.028L104.948 194.015ZM104.181 202.562L92.5967 201.098L93.0478 197.525L104.632 198.989L104.181 202.562Z" fill="black"/>
<path d="M78.2377 197.831L81.7188 189.035L85.9381 190.706L79.9168 205.922L75.8956 204.329L76.9579 201.644L76.7796 201.574C76.0927 202.325 75.2511 202.802 74.2549 203.003C73.256 203.211 72.1921 203.091 71.0629 202.644C70.0064 202.225 69.1768 201.629 68.5739 200.856C67.9711 200.082 67.6217 199.18 67.5256 198.149C67.4269 197.124 67.6115 196.021 68.0793 194.839L71.9132 185.151L76.1326 186.822L72.5966 195.757C72.2215 196.686 72.1718 197.506 72.4473 198.219C72.7203 198.938 73.2793 199.465 74.1245 199.8C74.6924 200.025 75.2426 200.102 75.7751 200.03C76.301 199.956 76.7789 199.732 77.2087 199.36C77.6294 198.992 77.9724 198.483 78.2377 197.831Z" fill="black"/>
<path d="M62.3402 178.676C63.3456 179.407 64.0683 180.327 64.5085 181.438C64.9388 182.549 65.0251 183.784 64.7674 185.142C64.4998 186.502 63.8298 187.92 62.7572 189.397C61.6555 190.914 60.4953 191.998 59.2766 192.649C58.0538 193.306 56.8559 193.589 55.6828 193.501C54.4997 193.413 53.4228 193.017 52.4519 192.311C51.7108 191.772 51.1851 191.197 50.8746 190.585C50.5543 189.975 50.3775 189.372 50.3443 188.777C50.3011 188.184 50.3285 187.651 50.4264 187.177L50.3144 187.096L45.4942 193.733L41.8319 191.071L54.6522 173.417L58.2714 176.048L56.7315 178.168L56.8866 178.281C57.3261 178.039 57.8352 177.851 58.4141 177.719C58.9831 177.588 59.603 177.587 60.2739 177.714C60.9391 177.838 61.6278 178.158 62.3402 178.676ZM59.0548 180.753C58.463 180.323 57.8464 180.12 57.2048 180.146C56.5533 180.173 55.9055 180.4 55.2616 180.827C54.6118 181.251 54.0011 181.856 53.4294 182.643C52.8576 183.431 52.4702 184.194 52.267 184.933C52.0638 185.672 52.0542 186.35 52.2383 186.967C52.4224 187.583 52.8103 188.107 53.4021 188.537C54.0053 188.975 54.6326 189.181 55.2841 189.154C55.9357 189.127 56.5784 188.901 57.2125 188.475C57.8466 188.049 58.4411 187.454 58.9962 186.69C59.5554 185.92 59.9436 185.161 60.1609 184.415C60.3683 183.67 60.3891 182.983 60.2232 182.353C60.0475 181.725 59.658 181.191 59.0548 180.753Z" fill="black"/>
<path d="M21.3552 160.869L17.9142 162.489L10.2877 146.274L13.7287 144.654L16.5716 150.699L32.8706 143.025L34.8112 147.152L18.5123 154.825L21.3552 160.869Z" fill="black"/>
<path d="M18.6812 129.642L27.9737 127.869L28.8237 132.327L7.39235 136.417L6.56629 132.084L14.76 130.521L14.7241 130.332C13.7061 130.15 12.8514 129.706 12.1599 128.999C11.4615 128.294 10.9959 127.331 10.7631 126.11C10.5502 124.994 10.6089 123.974 10.9389 123.05C11.2606 122.121 11.8311 121.34 12.6502 120.707C13.461 120.067 14.495 119.631 15.7521 119.399L25.9864 117.445L26.8364 121.904L17.3974 123.705C16.4054 123.887 15.6824 124.285 15.2284 124.9C14.773 125.507 14.6318 126.265 14.8047 127.172C14.9205 127.778 15.1519 128.291 15.4992 128.709C15.8451 129.12 16.291 129.411 16.8369 129.582C17.3744 129.747 17.9892 129.767 18.6812 129.642Z" fill="black"/>
<path d="M26.051 106.034L9.7197 105.006L10.0045 100.476L26.3358 101.504L26.051 106.034ZM7.75757 102.598C7.71523 103.271 7.45562 103.835 6.97875 104.289C6.49524 104.735 5.93806 104.938 5.3072 104.899C4.68344 104.859 4.16321 104.588 3.74651 104.085C3.32317 103.575 3.13268 102.983 3.17502 102.309C3.21737 101.636 3.4803 101.076 3.96381 100.63C4.44068 100.176 4.991 99.9684 5.61476 100.008C6.24562 100.047 6.77271 100.323 7.19605 100.833C7.61274 101.336 7.79992 101.924 7.75757 102.598Z" fill="black"/>
<path d="M21.3103 72.6978L20.2702 76.7286C19.9105 76.6863 19.5594 76.7327 19.2168 76.8678C18.8675 77.0007 18.5526 77.2232 18.272 77.5353C17.9869 77.8384 17.7631 78.2399 17.6008 78.7398C17.3836 79.4085 17.3423 80.0187 17.4768 80.5702C17.6045 81.1196 17.9014 81.47 18.3675 81.6215C18.739 81.7423 19.1013 81.6958 19.4545 81.482C19.8077 81.2682 20.1793 80.8252 20.5694 80.1529L22.0516 77.5205C22.8537 76.1084 23.7198 75.1428 24.6501 74.6237C25.5804 74.1046 26.6061 74.0273 27.7273 74.3918C28.7472 74.7233 29.5446 75.3149 30.1193 76.1664C30.6963 77.0111 31.0319 78.0239 31.1264 79.2047C31.2163 80.3765 31.0418 81.6379 30.6031 82.9889C29.934 85.0492 28.972 86.5512 27.7171 87.495C26.4577 88.4299 25.051 88.7605 23.497 88.4868L24.6529 84.1689C25.3228 84.2447 25.9032 84.0899 26.3943 83.7044C26.8787 83.3166 27.2459 82.7378 27.496 81.9677C27.7417 81.2111 27.7939 80.556 27.6527 80.0022C27.5068 79.4395 27.202 79.079 26.7381 78.9208C26.3442 78.8002 25.9696 78.8614 25.6144 79.1044C25.2524 79.3452 24.8942 79.7814 24.5398 80.413L23.1275 82.9336C22.3299 84.3547 21.4356 85.3149 20.4446 85.8142C19.4558 86.3068 18.3805 86.3642 17.2187 85.9866C16.2191 85.6616 15.4456 85.1115 14.8984 84.3361C14.3534 83.554 14.0452 82.6062 13.9737 81.4926C13.9044 80.3723 14.0859 79.1468 14.518 77.816C15.1564 75.8503 16.0742 74.4385 17.2713 73.5805C18.4707 72.7157 19.817 72.4215 21.3103 72.6978Z" fill="black"/>
<path d="M39.7176 30.1152L54.6493 46.0236L51.2874 49.1822L36.3557 33.2738L39.7176 30.1152Z" fill="black"/>
<path d="M70.6683 21.6122L67.151 23.8386C66.9177 23.5616 66.63 23.3551 66.2879 23.2191C65.9423 23.0769 65.5604 23.0235 65.1423 23.0589C64.7269 23.0847 64.289 23.2242 63.8285 23.4775C63.2124 23.8164 62.7646 24.2329 62.4851 24.7271C62.2022 25.2151 62.1787 25.6738 62.4147 26.1033C62.6028 26.4456 62.8988 26.6597 63.3026 26.7457C63.7063 26.8316 64.2805 26.763 65.025 26.5399L67.9074 25.6355C69.4586 25.1551 70.751 25.0441 71.7844 25.3025C72.8178 25.5609 73.6184 26.2067 74.1862 27.2399C74.7026 28.1798 74.8789 29.1569 74.7149 30.1711C74.5572 31.1819 74.1086 32.1501 73.3692 33.0755C72.6325 33.9914 71.6419 34.7916 70.3973 35.4761C68.4992 36.5201 66.7698 36.9566 65.2091 36.7856C63.6512 36.605 62.3995 35.8831 61.4541 34.6198L65.2524 32.2631C65.6888 32.777 66.2179 33.0615 66.8397 33.1166C67.4582 33.1655 68.1221 32.9948 68.8316 32.6046C69.5286 32.2213 70.0151 31.7794 70.2912 31.279C70.5701 30.7689 70.5947 30.2975 70.3649 29.8646C70.1603 29.507 69.8454 29.2952 69.4201 29.2291C68.9914 29.1569 68.4317 29.2297 67.741 29.4475L64.9861 30.3183C63.432 30.8084 62.1229 30.8962 61.0587 30.5818C60.0007 30.264 59.1776 29.5697 58.5893 28.4991C58.0831 27.5779 57.8959 26.6474 58.0278 25.7075C58.1659 24.7643 58.5901 23.8623 59.3003 23.0015C60.0167 22.1373 60.9879 21.3681 62.2138 20.6938C64.0247 19.6977 65.6601 19.2967 67.1201 19.4907C68.5862 19.6813 69.769 20.3885 70.6683 21.6122Z" fill="black"/>
<path d="M103.712 26V4.18182L118.413 4.18182V7.98508L108.325 7.98508V13.1839L117.657 13.1839V16.9872L108.325 16.9872V22.1967L118.456 22.1967V26L103.712 26Z" fill="black"/>
<path d="M131.376 17.8635L129.024 27.0268L124.629 25.8976L128.696 10.0476L132.886 11.1238L132.168 13.9202L132.354 13.9679C132.941 13.1362 133.716 12.5581 134.68 12.2336C135.645 11.9021 136.715 11.8875 137.892 12.1897C138.992 12.4724 139.89 12.9597 140.585 13.6515C141.28 14.3434 141.74 15.1948 141.964 16.2057C142.191 17.2098 142.146 18.3275 141.83 19.5589L139.24 29.6509L134.844 28.5217L137.233 19.214C137.489 18.2458 137.435 17.4254 137.072 16.753C136.711 16.0736 136.091 15.6208 135.21 15.3947C134.619 15.2427 134.063 15.2357 133.544 15.3736C133.031 15.5132 132.585 15.7946 132.205 16.2177C131.834 16.6356 131.558 17.1842 131.376 17.8635Z" fill="black"/>
<path d="M163.147 23.3737L161.505 26.3614L152.871 21.6122L154.513 18.6245L163.147 23.3737ZM158.361 16.2668L162.337 18.4539L154.991 31.8241C154.789 32.1914 154.688 32.5085 154.687 32.7755C154.689 33.0363 154.768 33.2619 154.923 33.4524C155.084 33.6463 155.298 33.8168 155.565 33.964C155.752 34.0666 155.947 34.1538 156.151 34.2253C156.358 34.2907 156.517 34.3414 156.627 34.3775L155.626 37.6812C155.392 37.6339 155.073 37.5515 154.668 37.4339C154.259 37.3225 153.791 37.1341 153.264 36.8687C152.285 36.3789 151.515 35.7892 150.954 35.0996C150.399 34.4134 150.092 33.6527 150.032 32.8174C149.973 31.9821 150.204 31.0963 150.727 30.1598L158.361 16.2668Z" fill="black"/>
<path d="M166.962 46.6633L178.161 34.732L181.469 37.8395L170.27 49.7708L166.962 46.6633ZM181.266 34.755C180.774 34.293 180.506 33.7335 180.46 33.0766C180.424 32.4193 180.623 31.8603 181.055 31.3994C181.483 30.9437 182.023 30.7156 182.676 30.7152C183.339 30.7144 183.917 30.9451 184.409 31.4071C184.9 31.8691 185.164 32.4287 185.2 33.0859C185.246 33.7429 185.055 34.2992 184.627 34.7549C184.194 35.2158 183.646 35.4466 182.983 35.4473C182.33 35.4478 181.758 35.217 181.266 34.755Z" fill="black"/>
<path d="M179.711 60.9652L193.525 52.194L195.882 55.9095L193.471 57.4399L193.563 57.5838C194.58 57.2913 195.496 57.303 196.31 57.6188C197.13 57.9309 197.786 58.4737 198.277 59.2474C198.398 59.4393 198.518 59.6539 198.634 59.891C198.751 60.1281 198.842 60.344 198.906 60.5386L195.507 62.6971C195.447 62.4829 195.337 62.2035 195.177 61.859C195.017 61.5145 194.854 61.2103 194.686 60.9464C194.329 60.3827 193.886 59.9569 193.359 59.6692C192.841 59.3836 192.285 59.249 191.69 59.2652C191.098 59.2874 190.521 59.4774 189.957 59.8353L182.142 64.7976L179.711 60.9652Z" fill="black"/>
<path d="M190.589 83.793C190.069 82.1921 189.946 80.7086 190.219 79.3428C190.501 77.9814 191.139 76.7957 192.133 75.7856C193.133 74.7733 194.454 74.0004 196.095 73.4669C197.696 72.9465 199.202 72.8005 200.613 73.0289C202.024 73.2574 203.25 73.8258 204.292 74.7343C205.336 75.6496 206.106 76.8705 206.601 78.3972C206.935 79.4239 207.08 80.4336 207.036 81.426C207.002 82.4231 206.764 83.3591 206.324 84.2341C205.886 85.1158 205.231 85.9038 204.359 86.5981C203.493 87.2902 202.399 87.8514 201.075 88.2818L199.889 88.6671L195.621 75.5253L198.296 74.6558L201.245 83.7345C201.866 83.5325 202.373 83.2185 202.764 82.7924C203.156 82.3663 203.409 81.8695 203.524 81.3021C203.647 80.7392 203.607 80.1437 203.403 79.5154C203.19 78.8602 202.849 78.3287 202.381 77.9209C201.921 77.5176 201.392 77.2565 200.793 77.1374C200.201 77.0162 199.597 77.0521 198.98 77.2452L196.437 78.0719C195.667 78.3222 195.048 78.6803 194.58 79.1462C194.113 79.619 193.814 80.1682 193.681 80.7938C193.548 81.4195 193.599 82.0938 193.834 82.8166C193.989 83.2962 194.2 83.7133 194.464 84.0679C194.729 84.4225 195.042 84.6978 195.404 84.8937C195.767 85.0896 196.168 85.1981 196.608 85.2194L197.641 89.2972C196.616 89.4064 195.644 89.2632 194.724 88.8677C193.813 88.4768 192.998 87.853 192.279 86.9963C191.569 86.1442 191.006 85.0764 190.589 83.793Z" fill="black"/>
<path d="M216.711 105.553L194.936 106.924L194.651 102.394L216.426 101.024L216.711 105.553Z" fill="black"/>
<path d="M188.191 120.103C188.299 119.538 188.445 119.016 188.63 118.538C188.807 118.066 188.992 117.682 189.186 117.386L192.322 119.026C192.062 119.518 191.885 119.973 191.791 120.389C191.696 120.812 191.724 121.196 191.875 121.543C192.024 121.897 192.331 122.22 192.796 122.511L193.427 122.902L211.06 120.292L210.166 124.98L197.728 126.055L197.696 126.223L208.859 131.835L207.959 136.554L191.34 126.908C190.532 126.442 189.856 125.891 189.313 125.252C188.761 124.619 188.386 123.878 188.186 123.03C187.979 122.181 187.981 121.205 188.191 120.103Z" fill="black"/>
<path d="M185.231 146.04L204.381 156.497L197.464 169.179L194.126 167.356L198.834 158.724L194.271 156.232L190.022 164.023L186.684 162.2L190.933 154.409L183.023 150.09L185.231 146.04Z" fill="#FBBF24"/>
<path d="M172.192 166.424L184.152 177.591L181.151 180.808L179.064 178.86L178.948 178.985C179.487 179.896 179.706 180.786 179.605 181.653C179.51 182.526 179.15 183.298 178.525 183.968C178.37 184.134 178.192 184.303 177.992 184.476C177.792 184.649 177.606 184.791 177.434 184.903L174.491 182.154C174.683 182.042 174.925 181.865 175.219 181.624C175.512 181.383 175.765 181.148 175.978 180.919C176.433 180.431 176.734 179.895 176.88 179.312C177.026 178.739 177.016 178.167 176.85 177.594C176.68 177.027 176.351 176.516 175.863 176.06L169.096 169.742L172.192 166.424Z" fill="#FBBF24"/>
<path d="M152.85 182.706C154.268 181.799 155.673 181.306 157.063 181.227C158.451 181.157 159.759 181.476 160.986 182.184C162.217 182.897 163.297 183.981 164.226 185.436C165.132 186.854 165.652 188.275 165.786 189.698C165.92 191.122 165.678 192.452 165.061 193.689C164.438 194.931 163.45 195.983 162.098 196.848C161.188 197.429 160.248 197.824 159.277 198.032C158.303 198.249 157.338 198.255 156.381 198.05C155.417 197.848 154.49 197.412 153.599 196.743C152.712 196.079 151.893 195.161 151.144 193.988L150.473 192.937L162.115 185.495L163.629 187.865L155.586 193.007C155.938 193.557 156.37 193.969 156.88 194.24C157.391 194.512 157.935 194.632 158.513 194.6C159.089 194.578 159.655 194.389 160.211 194.033C160.792 193.662 161.221 193.198 161.497 192.642C161.772 192.096 161.892 191.518 161.856 190.908C161.825 190.304 161.638 189.728 161.296 189.18L159.856 186.926C159.421 186.244 158.918 185.735 158.35 185.399C157.775 185.066 157.168 184.915 156.529 184.944C155.891 184.973 155.251 185.192 154.611 185.601C154.186 185.873 153.835 186.181 153.559 186.527C153.282 186.872 153.095 187.245 152.996 187.645C152.898 188.045 152.894 188.461 152.984 188.892L149.298 190.919C148.935 189.955 148.828 188.977 148.98 187.987C149.129 187.007 149.527 186.061 150.176 185.149C150.822 184.247 151.713 183.433 152.85 182.706Z" fill="#FBBF24"/>
<path d="M133.759 191.683C135.358 191.157 136.841 191.029 138.207 191.298C139.569 191.576 140.757 192.21 141.769 193.2C142.785 194.198 143.561 195.516 144.1 197.156C144.625 198.755 144.775 200.261 144.551 201.672C144.327 203.084 143.762 204.313 142.856 205.357C141.944 206.405 140.726 207.179 139.201 207.679C138.175 208.016 137.166 208.164 136.174 208.124C135.177 208.093 134.24 207.858 133.364 207.421C132.481 206.986 131.691 206.333 130.994 205.463C130.3 204.6 129.735 203.507 129.301 202.184L128.912 201L142.04 196.689L142.917 199.361L133.848 202.339C134.052 202.96 134.368 203.466 134.795 203.856C135.222 204.247 135.72 204.498 136.287 204.611C136.85 204.732 137.446 204.69 138.073 204.484C138.728 204.269 139.258 203.927 139.665 203.457C140.066 202.996 140.326 202.466 140.443 201.867C140.563 201.274 140.525 200.67 140.33 200.053L139.496 197.513C139.244 196.744 138.884 196.125 138.416 195.658C137.942 195.194 137.392 194.896 136.766 194.765C136.14 194.634 135.466 194.687 134.744 194.925C134.265 195.082 133.849 195.293 133.495 195.559C133.141 195.825 132.867 196.139 132.672 196.502C132.477 196.865 132.37 197.267 132.35 197.707L128.276 198.753C128.164 197.729 128.304 196.756 128.697 195.834C129.085 194.922 129.706 194.105 130.561 193.383C131.41 192.67 132.476 192.104 133.759 191.683Z" fill="#FBBF24"/>
</svg>
